<svg width="294" height="140" viewBox="0 0 294 140" fill="none" xmlns="http://www.w3.org/2000/svg">
<path d="M182 31C182 18.1792 173.809 6.3688 161.772 1.91558C158.331 0.642524 154.668 0 151 0C138.086 0 126.2 8.31381 121.822 20.4799C120.611 23.8476 120 27.4218 120 31C120 43.8239 128.189 55.633 140.231 60.085C143.671 61.3565 147.334 62 151 62C163.968 62 175.896 53.6112 180.229 41.3753C181.407 38.05 182 34.5269 182 31ZM171.518 50.8714L168.686 47.4319C170.506 45.5482 171.996 43.3993 173.126 41.0301C173.413 40.4264 173.157 39.7036 172.553 39.4159C171.95 39.1281 171.227 39.3842 170.939 39.9881C169.963 42.0362 168.686 43.9016 167.136 45.5486L160.609 37.619V24.7868L172.453 25.5597C172.803 27.0267 173 28.5378 173.039 30.0632C173.056 30.7318 173.613 31.2599 174.28 31.2429C174.949 31.2257 175.477 30.67 175.46 30.0015C175.423 28.5575 175.257 27.1252 174.968 25.7238L179.139 25.996C179.427 27.6212 179.578 29.2933 179.578 31C179.578 38.715 176.504 45.7245 171.518 50.8714ZM166.323 55.113L160.609 49.9682V41.4297L160.712 41.5556L166.114 48.1179C166.114 48.1183 166.115 48.1185 166.115 48.1188L169.757 52.5431C168.68 53.4821 167.532 54.3418 166.323 55.113ZM154.629 59.3487L152.096 39.9873C152.017 39.3844 151.504 38.9336 150.895 38.9336C150.287 38.9336 149.774 39.3845 149.695 39.9873L147.165 59.32C145.953 59.1566 144.764 58.9167 143.604 58.6057V23.4761C143.604 22.7902 143.001 22.2208 142.315 22.2677L123.422 23.501C123.736 22.3476 124.121 21.223 124.571 20.1321L150.878 15.1858C150.884 15.1859 150.89 15.186 150.896 15.1861C150.903 15.1864 150.911 15.1865 150.919 15.1867L177.431 20.1353C177.884 21.2354 178.271 22.3695 178.586 23.533L159.476 22.286C158.788 22.2404 158.187 22.8053 158.187 23.4944V58.6625C157.028 58.9638 155.84 59.1946 154.629 59.3487ZM131.611 51.9744L135.521 47.2238C135.524 47.2207 135.527 47.2181 135.529 47.2149L141.183 40.3455V49.1641L135.04 54.6955C133.827 53.8762 132.682 52.965 131.611 51.9744ZM130.112 25.4916L141.183 24.7686V36.5342L140.474 37.3947L134.557 44.5841C131.288 40.6733 129.502 35.7701 129.502 30.6322C129.502 28.892 129.707 27.1667 130.112 25.4916ZM141.183 52.4232V57.8407C139.8 57.3333 138.468 56.7204 137.194 56.0147L141.183 52.4232ZM129.487 12.2088L133.318 16.0231L125.857 17.4259C126.873 15.551 128.094 13.8024 129.487 12.2088ZM134.01 8.03505L142.143 14.3634L136.205 15.4803L131.157 10.4543C132.054 9.58796 133.007 8.7793 134.01 8.03505ZM176.146 17.4321L168.332 15.9735L172.326 11.998C173.799 13.6493 175.084 15.4714 176.146 17.4321ZM170.639 10.2589L165.441 15.4338L159.506 14.326L167.784 7.88478C168.787 8.61497 169.741 9.40765 170.639 10.2589ZM156.325 13.7323L155.238 13.5293C156.479 12.3851 157.258 10.7473 157.258 8.93042V6.75618C157.258 5.27472 156.739 3.91278 155.875 2.83965C159.396 3.4473 162.697 4.70086 165.653 6.47379L156.325 13.7323ZM154.836 8.93042C154.836 11.0422 153.121 12.7606 151.01 12.7661C150.989 12.7658 150.971 12.7655 150.956 12.7651C150.951 12.765 150.944 12.7649 150.939 12.7647C148.852 12.7318 147.164 11.0251 147.164 8.93042V6.75618C147.164 4.64104 148.885 2.9203 151 2.9203C153.115 2.9203 154.836 4.64104 154.836 6.75618V8.93042ZM146.732 13.501L145.319 13.7667L136.122 6.6093C139.135 4.76431 142.515 3.46268 146.124 2.83965C145.261 3.91266 144.742 5.27472 144.742 6.75618V8.93042C144.742 10.7325 145.509 12.3581 146.732 13.501ZM160.609 53.2271L164.116 56.3852C162.989 56.9702 161.817 57.4816 160.609 57.9144V53.2271ZM122.866 25.9644L127.593 25.6559C127.252 27.2857 127.08 28.953 127.08 30.6322C127.08 36.4949 129.173 42.0818 132.995 46.4829L129.895 50.2487C125.255 45.1659 122.422 38.4078 122.422 31C122.422 29.2823 122.574 27.5994 122.866 25.9644ZM149.579 59.5426L150.895 49.4783L152.213 59.5506C151.811 59.5675 151.407 59.5781 151 59.5781C150.523 59.5781 150.05 59.5658 149.579 59.5426Z" fill="white"/>
<path d="M174.876 34.9584C174.626 34.3482 173.903 34.05 173.294 34.3032C172.685 34.5568 172.387 35.2734 172.639 35.8836C172.891 36.4938 173.611 36.7917 174.221 36.54C174.83 36.2886 175.129 35.5667 174.876 34.9584Z" fill="white"/>
<path d="M10.2795 86.5H7.40449L6.15449 92.5L5.50449 96.575L4.65449 92.475L3.15449 86.5H0.429492L4.22949 100L4.20449 100.15C3.97949 101.425 3.17949 101.675 1.77949 101.575V104.025C5.60449 104.275 6.67949 102.7 7.32949 99.55L10.2795 86.5ZM15.2346 86.5H11.4096V104H13.8096V91.625L15.8596 104H18.4596L20.3596 91.45V104H22.9596V86.5H19.1346L17.2596 98.925L15.2346 86.5ZM27.71 96.5H30.835V104H33.635V86.5H30.835V94H27.71V86.5H24.96V104H27.71V96.5ZM39.6789 104C42.4289 104 43.7789 102.475 43.7789 99.675V97.4C43.7789 94.6 42.4289 93.075 39.6789 93.075H38.3789V86.5H35.6289V104H39.6789ZM38.3789 101.5V95.575H39.6789C40.5539 95.575 41.0289 95.975 41.0289 97.225V99.85C41.0289 101.1 40.5539 101.5 39.6789 101.5H38.3789ZM48.1039 104V86.5H45.3539V104H48.1039ZM52.8564 89H57.6064V86.5H50.1064V104H57.6064V101.5H52.8564V96.375H56.6314V93.875H52.8564V89ZM67.2424 86.5H63.1924V104H65.9424V97.425H67.2424C69.9924 97.425 71.3424 95.9 71.3424 93.1V90.825C71.3424 88.025 69.9924 86.5 67.2424 86.5ZM67.2424 89C68.1174 89 68.5924 89.4 68.5924 90.65V93.275C68.5924 94.525 68.1174 94.925 67.2424 94.925H65.9424V89H67.2424ZM75.3662 89H80.1162V86.5H72.6162V104H80.1162V101.5H75.3662V96.375H79.1412V93.875H75.3662V89ZM94.8203 104V86.5H92.0703V101.5H89.6953V86.5H86.9453V101.5H84.5703V86.5H81.8203V104H94.8203ZM99.5605 89H104.311V86.5H96.8105V104H104.311V101.5H99.5605V96.375H103.336V93.875H99.5605V89ZM108.765 96.5H111.89V104H114.69V86.5H111.89V94H108.765V86.5H106.015V104H108.765V96.5ZM121.809 95.975L122.934 91.675V104H125.409V86.5H122.384L120.134 93.725L119.134 97.575V86.5H116.684V104H119.509L121.809 95.975ZM129.653 104C129.803 103.55 129.903 103.275 129.903 101.85V99.1C129.903 97.475 130.453 96.875 131.703 96.875H132.653V104H135.403V86.5H131.253C128.403 86.5 127.178 87.825 127.178 90.525V91.9C127.178 93.7 127.753 94.875 128.978 95.45C127.603 96.025 127.153 97.35 127.153 99.175V101.875C127.153 102.725 127.128 103.35 126.853 104H129.653ZM132.653 89V94.375H131.578C130.553 94.375 129.928 93.925 129.928 92.525V90.8C129.928 89.55 130.353 89 131.328 89H132.653ZM140.293 96.375H165.293V94.125H140.293V96.375Z" fill="white"/>
<path d="M185.564 86.5H182.689L181.439 92.5L180.789 96.575L179.939 92.475L178.439 86.5H175.714L179.514 100L179.489 100.15C179.264 101.425 178.464 101.675 177.064 101.575V104.025C180.889 104.275 181.964 102.7 182.614 99.55L185.564 86.5ZM190.519 86.5H186.694V104H189.094V91.625L191.144 104H193.744L195.644 91.45V104H198.244V86.5H194.419L192.544 98.925L190.519 86.5ZM202.994 96.5H206.119V104H208.919V86.5H206.119V94H202.994V86.5H200.244V104H202.994V96.5ZM217.013 86.5H212.988L210.188 104H212.713L213.188 100.825H216.563L217.038 104H219.813L217.013 86.5ZM214.863 89.6L216.188 98.45H213.538L214.863 89.6ZM223.394 104C223.544 103.55 223.644 103.275 223.644 101.85V99.1C223.644 97.475 224.194 96.875 225.444 96.875H226.394V104H229.144V86.5H224.994C222.144 86.5 220.919 87.825 220.919 90.525V91.9C220.919 93.7 221.494 94.875 222.719 95.45C221.344 96.025 220.894 97.35 220.894 99.175V101.875C220.894 102.725 220.869 103.35 220.594 104H223.394ZM226.394 89V94.375H225.319C224.294 94.375 223.669 93.925 223.669 92.525V90.8C223.669 89.55 224.094 89 225.069 89H226.394ZM240.409 97.475V99.975C240.409 101.225 239.859 101.675 238.984 101.675C238.109 101.675 237.559 101.225 237.559 99.975V90.525C237.559 89.275 238.109 88.8 238.984 88.8C239.859 88.8 240.409 89.275 240.409 90.525V92.4H243.009V90.7C243.009 87.9 241.609 86.3 238.909 86.3C236.209 86.3 234.809 87.9 234.809 90.7V99.8C234.809 102.6 236.209 104.2 238.909 104.2C241.609 104.2 243.009 102.6 243.009 99.8V97.475H240.409ZM243.878 89H246.753V104H249.503V89H252.378V86.5H243.878V89ZM257.639 86.5H253.589V104H256.339V97.425H257.639C260.389 97.425 261.739 95.9 261.739 93.1V90.825C261.739 88.025 260.389 86.5 257.639 86.5ZM257.639 89C258.514 89 258.989 89.4 258.989 90.65V93.275C258.989 94.525 258.514 94.925 257.639 94.925H256.339V89H257.639ZM269.113 86.5H265.088L262.288 104H264.813L265.288 100.825H268.663L269.138 104H271.913L269.113 86.5ZM266.963 89.6L268.288 98.45H265.638L266.963 89.6ZM275.944 96.5H279.069V104H281.869V86.5H279.069V94H275.944V86.5H273.194V104H275.944V96.5ZM289.963 86.5H285.938L283.138 104H285.663L286.138 100.825H289.513L289.988 104H292.763L289.963 86.5ZM287.813 89.6L289.138 98.45H286.488L287.813 89.6Z" fill="white"/>
<path d="M69.768 122.13C66.222 122.13 63.936 124.902 63.936 128.664C63.936 132.426 66.222 135.198 69.768 135.198C73.314 135.198 75.6 132.426 75.6 128.664C75.6 124.902 73.314 122.13 69.768 122.13ZM69.768 133.704C67.176 133.704 65.574 131.616 65.574 128.664C65.574 125.712 67.176 123.624 69.768 123.624C72.36 123.624 73.962 125.712 73.962 128.664C73.962 131.616 72.36 133.704 69.768 133.704ZM79.4332 135V130.986H83.9152V135H85.4632V125.928H83.9152V129.582H79.4332V125.928H77.8852V135H79.4332ZM87.0884 135.036H87.5204C89.3744 135.036 90.2204 134.064 90.4184 131.598L90.7784 127.314H94.1084V135H95.6564V125.928H89.3924L88.9244 131.49C88.7984 133.056 88.4744 133.632 87.3404 133.632H87.0884V135.036ZM103.782 128.988V129.6H101.37C99.1557 129.6 97.8057 130.662 97.8057 132.408C97.8057 134.136 99.1737 135.198 100.938 135.198C102.09 135.198 103.17 134.766 103.854 133.92V135H105.312V128.988C105.312 126.954 103.89 125.73 101.766 125.73C99.6957 125.73 98.4357 126.9 98.1477 128.304H99.6417C99.8937 127.638 100.542 127.098 101.73 127.098C102.9 127.098 103.782 127.728 103.782 128.988ZM101.136 133.848C100.128 133.848 99.3717 133.344 99.3717 132.39C99.3717 131.418 100.218 130.914 101.46 130.914H103.782V131.58C103.782 132.966 102.576 133.848 101.136 133.848ZM115.612 125.928H114.082L109.456 132.624V125.928H107.926V135H109.456L114.082 128.322V135H115.612V125.928ZM110.302 121.77H108.916C108.952 123.444 110.086 124.578 111.778 124.578C113.47 124.578 114.604 123.444 114.64 121.77H113.254C113.254 122.634 112.75 123.354 111.778 123.354C110.806 123.354 110.302 122.634 110.302 121.77ZM119.863 135V130.986H124.345V135H125.893V125.928H124.345V129.582H119.863V125.928H118.315V135H119.863ZM128.238 130.878H133.836V129.402H128.238V130.878ZM137.722 135V130.626L141.664 135H143.662L139.342 130.158L143.608 125.928H141.646L137.722 129.816V125.928H136.174V135H137.722ZM148.639 125.73C145.993 125.73 144.283 127.71 144.283 130.464C144.283 133.218 145.993 135.198 148.639 135.198C151.285 135.198 152.995 133.218 152.995 130.464C152.995 127.71 151.285 125.73 148.639 125.73ZM148.639 133.794C146.929 133.794 145.867 132.444 145.867 130.464C145.867 128.484 146.929 127.134 148.639 127.134C150.349 127.134 151.411 128.484 151.411 130.464C151.411 132.444 150.349 133.794 148.639 133.794ZM156.707 135V130.986H161.189V135H162.737V125.928H161.189V129.582H156.707V125.928H155.159V135H156.707ZM171.112 125.748V122.328H169.6V125.748C166.9 125.838 164.902 127.674 164.902 130.464C164.902 133.254 166.9 135.09 169.6 135.18V138.438H171.112V135.18C173.812 135.09 175.81 133.254 175.81 130.464C175.81 127.674 173.812 125.838 171.112 125.748ZM169.6 133.776C167.89 133.74 166.468 132.552 166.468 130.464C166.468 128.376 167.89 127.188 169.6 127.152V133.776ZM174.244 130.464C174.244 132.552 172.822 133.74 171.112 133.776V127.152C172.822 127.188 174.244 128.376 174.244 130.464ZM185.661 130.932V130.14C185.661 127.44 184.113 125.73 181.701 125.73C179.217 125.73 177.435 127.53 177.435 130.464C177.435 133.38 179.199 135.198 181.827 135.198C184.185 135.198 185.319 133.722 185.553 132.66H183.987C183.825 133.128 183.105 133.812 181.845 133.812C180.171 133.812 179.055 132.588 179.055 130.968V130.932H185.661ZM181.665 127.116C183.123 127.116 184.023 128.052 184.095 129.618H179.073C179.199 128.142 180.153 127.116 181.665 127.116ZM192.283 125.73C190.717 125.73 189.745 126.468 189.313 127.224V125.928H187.819V138.438H189.367V133.884C189.799 134.568 190.771 135.198 192.229 135.198C194.317 135.198 196.369 133.668 196.369 130.464C196.369 127.278 194.335 125.73 192.283 125.73ZM192.085 133.794C190.411 133.794 189.313 132.516 189.313 130.5V130.428C189.313 128.412 190.411 127.134 192.085 127.134C193.705 127.134 194.785 128.484 194.785 130.464C194.785 132.444 193.705 133.794 192.085 133.794ZM206.21 130.932V130.14C206.21 127.44 204.662 125.73 202.25 125.73C199.766 125.73 197.984 127.53 197.984 130.464C197.984 133.38 199.748 135.198 202.376 135.198C204.734 135.198 205.868 133.722 206.102 132.66H204.536C204.374 133.128 203.654 133.812 202.394 133.812C200.72 133.812 199.604 132.588 199.604 130.968V130.932H206.21ZM202.214 127.116C203.672 127.116 204.572 128.052 204.644 129.618H199.622C199.748 128.142 200.702 127.116 202.214 127.116ZM209.916 135V130.986H214.398V135H215.946V125.928H214.398V129.582H209.916V125.928H208.368V135H209.916ZM227.453 133.596H226.121V125.928H224.573V133.596H220.199V125.928H218.651V135H225.959V137.304H227.453V133.596ZM237.024 125.928H235.494L230.868 132.624V125.928H229.338V135H230.868L235.494 128.322V135H237.024V125.928ZM246.135 135V125.928H242.535C240.483 125.928 239.331 127.26 239.331 128.916C239.331 130.212 240.069 131.31 241.311 131.742L238.827 135H240.627L242.967 131.922H244.587V135H246.135ZM240.879 128.916C240.879 127.962 241.563 127.278 242.715 127.278H244.587V130.572H242.715C241.563 130.572 240.879 129.888 240.879 128.916Z" fill="white"/>
</svg>
