<svg width="21" height="21" viewBox="0 0 21 21" fill="none" xmlns="http://www.w3.org/2000/svg">
<g clip-path="url(#clip0)">
<path d="M20.083 1.36719C19.1353 0.856927 18.0784 1.841 17.4588 2.42415C16.0374 3.80915 14.8346 5.41282 13.486 6.87071C11.9917 8.47438 10.6067 10.0781 9.0759 11.6453C8.20117 12.5201 7.25355 13.4677 6.67039 14.5611C5.35829 13.2854 4.22843 11.9004 2.77055 10.7706C1.71358 9.96878 -0.0358866 9.38562 0.000560526 11.3173C0.0734549 13.8322 2.29673 16.5293 3.93685 18.2423C4.62935 18.9712 5.54053 19.7366 6.5975 19.7731C7.87315 19.846 9.18525 18.3152 9.95064 17.4769C11.2992 16.019 12.3927 14.3788 13.6318 12.8846C15.2355 10.9164 16.8756 8.98464 18.4428 6.98005C19.4269 5.74085 22.5249 2.67923 20.083 1.36719ZM1.60418 11.1715C1.56773 11.1715 1.53128 11.1715 1.45839 11.2079C1.3126 11.1715 1.20326 11.135 1.05747 11.0621C1.16681 10.9892 1.34905 11.0257 1.60418 11.1715Z" fill="#F69700"/>
</g>
<defs>
<clipPath id="clip0">
<rect width="21" height="21" fill="white"/>
</clipPath>
</defs>
</svg>
