<svg width="103" height="118" viewBox="0 0 103 118" fill="none" xmlns="http://www.w3.org/2000/svg">
<path d="M56.4809 117.611V107.66H47.3132V117.611H44.2895V96.4658H47.3132V105.085H56.4809V96.4658H59.5067V117.611H56.4809ZM79.2045 117.611H82.2754V96.4658H78.6694L70.1292 113.217H70.04V96.4658H67.0185V117.611H70.6203L79.1572 100.909H79.2045V117.611ZM96.7899 99.0389H102.575V96.4669H87.9789V99.0389H93.7608V117.612H96.7899V99.0389ZM27.8657 96.5087H32.6397L39.5187 117.611H36.263L34.62 112.183H25.8005L24.0963 117.611H21.1533L27.8657 96.5087ZM26.5258 109.656H33.826L30.1619 97.5056H30.0985L26.5258 109.656ZM3.69898 96.4658V101.176C3.69898 107.349 3.43895 109.486 3.25736 110.632C2.8974 112.951 2.19145 114.283 1.25663 114.767C0.990149 114.911 0.65168 115.017 0.314285 115.111L0.029541 117.998C1.02776 117.895 2.26559 117.713 3.21545 117.169C5.74806 115.616 6.151 112.237 6.3745 109.438C6.55179 107.925 6.73231 105.172 6.73231 101.347V99.1731H13.4447V117.611H16.6049V96.4658H3.69898Z" fill="#009BD9"/>
<path d="M96.8323 48.287C88.795 48.2923 81.6786 52.2174 77.286 58.2478C76.8025 55.8153 76.2018 53.4257 75.4798 51.0875C80.9458 45.6312 88.4931 42.2555 96.8313 42.2512L102.914 42.2083L102.927 36.2198L96.8323 36.2144C87.829 36.2176 79.5994 39.5054 73.2598 44.9327C72.4658 43.0023 71.5857 41.1192 70.6348 39.2768C77.8394 33.5877 86.9351 30.1819 96.8323 30.1787L102.866 30.183L102.928 24.1547L96.8323 24.1429C85.8487 24.1462 75.7269 27.8116 67.6101 33.975C66.5345 32.2646 65.4009 30.5939 64.191 28.9833C73.2824 22.1579 84.583 18.1094 96.8323 18.1061L102.927 18.1169V12.0811L96.8323 12.0693C83.127 12.0725 70.493 16.6372 60.3561 24.3168C59.0087 22.8049 57.5957 21.3542 56.1279 19.9603C67.3758 11.2442 81.4916 6.03896 96.8323 6.03574L102.927 6.04647V0.0118032L96.8323 0C79.6725 0.00321906 63.9181 5.96921 51.5 15.9183C39.083 5.96921 23.3275 0.00321906 6.16874 0L0.0741409 0.0118032V6.04647L6.16874 6.03574C21.5095 6.03896 35.6252 11.2442 46.8732 19.9625C45.4054 21.3563 43.9924 22.807 42.645 24.3189C32.5081 16.6393 19.8741 12.0747 6.16874 12.0715L0.0741409 12.0833V18.119L6.16874 18.1083C18.4181 18.1115 29.7198 22.16 38.8112 28.9855C37.6002 30.595 36.4677 32.2668 35.3921 33.9772C27.2753 27.8127 17.1523 24.1472 6.16874 24.1451L0.0741409 24.1569L0.135388 30.1851L6.16874 30.1808C16.066 30.184 25.1617 33.5898 32.3663 39.279C31.4153 41.1213 30.5353 43.0045 29.7413 44.9349C23.4027 39.5075 15.172 36.2209 6.16874 36.2166L0.0741409 36.2219L0.0859605 42.2105L6.16874 42.2534C14.5069 42.2577 22.0553 45.6334 27.5213 51.0897C26.8003 53.4278 26.1997 55.8174 25.7162 58.2489C21.3236 52.2185 14.2071 48.2934 6.16981 48.288L0 48.3084V54.3302L6.16874 54.3216C16.1767 54.3302 24.2871 62.4326 24.2871 72.4288L24.3064 84.467L30.3559 84.511L30.3494 81.277L30.3602 72.4288C30.3602 67.1399 30.9974 62.0023 32.1675 57.0707C34.8376 61.571 36.3753 66.8191 36.3753 72.4288L36.3162 84.4681H36.3946H42.4H42.4537L42.4322 76.6694L42.4494 72.4299C42.4494 66.6281 43.3692 61.043 45.0562 55.8003C47.2471 60.9046 48.4645 66.5251 48.4645 72.4299L48.4591 84.4681H48.5365H54.4646H54.5419L54.5376 72.4299C54.5376 66.524 55.755 60.9046 57.946 55.7992C59.6329 61.042 60.5527 66.627 60.5527 72.4299L60.5699 76.6201L60.5473 84.467H60.6011H66.6065H66.6838L66.6247 72.4288C66.6247 66.8191 68.1624 61.571 70.8325 57.0718C72.0026 62.0034 72.6398 67.141 72.6398 72.4288L72.6516 81.3188L72.6452 84.511L78.6936 84.467L78.7129 72.4288C78.7129 62.4326 86.8233 54.3302 96.8313 54.3216L103 54.3302V48.3084L96.8323 48.287ZM62.9918 37.9656C61.4768 39.4506 60.0627 41.0355 58.7529 42.7083C57.7031 40.8595 56.5577 39.0729 55.3252 37.3518C56.6533 35.7863 58.0695 34.298 59.5642 32.8923C60.7805 34.5276 61.927 36.2187 62.9918 37.9656ZM51.5 23.894C52.9731 25.2675 54.3861 26.7032 55.7303 28.2043C54.2486 29.5789 52.8378 31.0285 51.5 32.5447C50.1622 31.0285 48.7525 29.5799 47.2697 28.2043C48.6139 26.7042 50.0269 25.2675 51.5 23.894ZM43.4358 32.8902C44.9315 34.2969 46.3477 35.7841 47.6758 37.3507C46.4423 39.0719 45.298 40.8584 44.2482 42.7073C42.9383 41.0355 41.5243 39.4496 40.0092 37.9656C41.0741 36.2187 42.2195 34.5266 43.4358 32.8902ZM38.6113 56.2756C37.4336 53.9203 36.0088 51.712 34.367 49.683C35.1374 47.5734 36.0131 45.5143 36.9856 43.511C38.5307 45.1537 39.9534 46.9114 41.2223 48.7848C40.1897 51.2034 39.3237 53.7079 38.6113 56.2756ZM51.5011 55.6404C50.5609 53.1091 49.4058 50.683 48.0734 48.3717C49.0931 46.3126 50.2385 44.3286 51.5011 42.4272C52.7636 44.3275 53.909 46.3126 54.9287 48.3707C53.5953 50.683 52.4413 53.1091 51.5011 55.6404ZM64.3898 56.2767C63.6763 53.7079 62.8102 51.2034 61.7787 48.7848C63.0477 46.9114 64.4704 45.1537 66.0155 43.511C66.9879 45.5143 67.8637 47.5734 68.6341 49.683C66.9922 51.712 65.5674 53.9214 64.3898 56.2767Z" fill="#009BD9"/>
</svg>
