<svg width="378" height="69" viewBox="0 0 378 69" fill="none" xmlns="http://www.w3.org/2000/svg">
<path d="M69 34.5C69 20.2317 59.8842 7.08786 46.4885 2.13186C42.6588 0.715066 38.5823 0 34.5 0C20.1275 0 6.90027 9.25247 2.02809 22.7921C0.679488 26.5401 0 30.5178 0 34.5C0 48.7718 9.11406 61.9142 22.5157 66.8688C26.3432 68.2839 30.4204 69 34.5 69C48.9323 69 62.2069 59.6641 67.0296 46.0467C68.3402 42.3459 69 38.425 69 34.5ZM57.3341 56.6149L54.1832 52.7872C56.2079 50.6907 57.8667 48.2992 59.1236 45.6625C59.4438 44.9907 59.1587 44.1863 58.4868 43.8661C57.8151 43.5457 57.0107 43.8308 56.6904 44.5028C55.6039 46.7823 54.1833 48.8582 52.4578 50.6911L45.1934 41.8663V27.5853L58.3752 28.4455C58.7647 30.0781 58.9837 31.7598 59.0269 33.4575C59.0459 34.2015 59.6656 34.7892 60.4086 34.7703C61.1526 34.7512 61.7404 34.1328 61.7214 33.3887C61.6803 31.7818 61.4952 30.1878 61.1739 28.6281L65.816 28.9311C66.1368 30.7398 66.3047 32.6006 66.3047 34.5C66.3047 43.0861 62.8833 50.887 57.3341 56.6149ZM51.5527 61.3355L45.1934 55.6098V46.1072L45.3087 46.2474L51.3206 53.5506C51.3209 53.551 51.3213 53.5513 51.3216 53.5515L55.3748 58.4753C54.1761 59.5205 52.8987 60.4772 51.5527 61.3355ZM38.5392 66.0493L35.7199 44.502C35.6322 43.831 35.0604 43.3293 34.3837 43.3293C33.707 43.3293 33.1352 43.8312 33.0475 44.502L30.2324 66.0174C28.883 65.8356 27.5602 65.5686 26.2695 65.2225V26.1266C26.2695 25.3633 25.5974 24.7296 24.8341 24.7818L3.80861 26.1544C4.15806 24.8707 4.5858 23.6192 5.08686 22.4051L34.3644 16.9003C34.3709 16.9004 34.3772 16.9006 34.384 16.9007C34.3923 16.901 34.4007 16.9011 34.4094 16.9014L63.9146 22.4087C64.4197 23.6329 64.8502 24.8951 65.2011 26.1899L43.9335 24.8021C43.1673 24.7515 42.4981 25.3801 42.4981 26.147V65.2857C41.2081 65.621 39.8868 65.8779 38.5392 66.0493ZM12.9223 57.8425L17.2737 52.5555C17.2765 52.5521 17.2799 52.5492 17.2827 52.5457L23.5743 44.9007V54.7148L16.7379 60.8708C15.3886 59.959 14.114 58.9449 12.9223 57.8425ZM11.2532 28.3696L23.5741 27.5651V40.6591L22.786 41.6167L16.2008 49.6177C12.5623 45.2655 10.5748 39.8087 10.5748 34.0907C10.5748 32.154 10.8027 30.2339 11.2532 28.3696ZM23.5741 58.3419V64.3711C22.0353 63.8064 20.5528 63.1244 19.1354 62.3389L23.5741 58.3419ZM10.5583 13.5872L14.8213 17.8322L6.51794 19.3933C7.64903 17.3067 9.00733 15.3607 10.5583 13.5872ZM15.5921 8.94224L24.6428 15.9851L18.0345 17.228L12.4172 11.6346C13.4151 10.6705 14.4754 9.77051 15.5921 8.94224ZM62.4856 19.4002L53.7889 17.7769L58.2333 13.3526C59.8727 15.1904 61.3035 17.2182 62.4856 19.4002ZM56.3568 11.4172L50.5719 17.1763L43.9666 15.9434L53.1788 8.77499C54.2948 9.58763 55.3567 10.4698 56.3568 11.4172ZM40.4266 15.2827L39.2167 15.0568C40.5973 13.7834 41.4641 11.9607 41.4641 9.9387V7.51898C41.4641 5.87026 40.8871 4.35455 39.9259 3.16025C43.8434 3.83651 47.5176 5.2316 50.8077 7.2047L40.4266 15.2827ZM38.769 9.9387C38.769 12.2889 36.86 14.2013 34.5112 14.2074C34.4883 14.2071 34.4681 14.2067 34.4509 14.2063C34.445 14.2062 34.4381 14.206 34.4319 14.2059C32.1094 14.1693 30.231 12.2699 30.231 9.9387V7.51898C30.231 5.16503 32.146 3.25001 34.5 3.25001C36.854 3.25001 38.769 5.16503 38.769 7.51898V9.9387ZM29.7502 15.0253L28.1779 15.321L17.9418 7.35551C21.2954 5.30222 25.057 3.85362 29.0739 3.16025C28.1128 4.35441 27.5357 5.87026 27.5357 7.51898V9.9387C27.5357 11.9443 28.3891 13.7534 29.7502 15.0253ZM45.1934 59.2366L49.097 62.7513C47.8421 63.4024 46.5385 63.9715 45.1934 64.4531V59.2366ZM3.1899 28.8959L8.44981 28.5525C8.07098 30.3663 7.87948 32.2219 7.87948 34.0907C7.87948 40.6153 10.2088 46.8329 14.4617 51.731L11.0124 55.9219C5.84883 50.2653 2.69531 42.7442 2.69531 34.5C2.69531 32.5883 2.86512 30.7155 3.1899 28.8959ZM32.9181 66.2652L34.3837 55.0646L35.8505 66.2741C35.4024 66.2928 34.9525 66.3047 34.5 66.3047C33.9696 66.3047 33.4422 66.2909 32.9181 66.2652Z" fill="#2196E9"/>
<path d="M61.0717 38.9058C60.7931 38.2267 59.9884 37.8949 59.3115 38.1767C58.6336 38.4589 58.302 39.2565 58.5826 39.9356C58.8632 40.6146 59.6638 40.9462 60.3426 40.666C61.0201 40.3862 61.3535 39.5829 61.0717 38.9058Z" fill="#2196E9"/>
<path d="M96.1 29.55C95.9333 30.3333 95.725 31.025 95.475 31.625C95.2417 32.2083 94.9167 32.6917 94.5 33.075C94.1 33.4417 93.575 33.7083 92.925 33.875C92.2917 34.0417 91.5 34.0917 90.55 34.025V31.575C91.25 31.625 91.8 31.5583 92.2 31.375C92.6 31.1917 92.8583 30.7833 92.975 30.15L93 30L89.2 16.5H91.925L93.425 22.475L94.275 26.575L94.925 22.5L96.175 16.5H99.05L96.1 29.55ZM106.03 28.925L107.905 16.5H111.73V34H109.13V21.45L107.23 34H104.63L102.58 21.625V34H100.18V16.5H104.005L106.03 28.925ZM116.48 34H113.73V16.5H116.48V24H119.605V16.5H122.405V34H119.605V26.5H116.48V34ZM124.399 34V16.5H127.149V23.075H128.449C129.833 23.075 130.858 23.4417 131.524 24.175C132.208 24.9083 132.549 25.9833 132.549 27.4V29.675C132.549 31.0917 132.208 32.1667 131.524 32.9C130.858 33.6333 129.833 34 128.449 34H124.399ZM128.449 31.5C128.883 31.5 129.216 31.3833 129.449 31.15C129.683 30.9167 129.799 30.4833 129.799 29.85V27.225C129.799 26.5917 129.683 26.1583 129.449 25.925C129.216 25.6917 128.883 25.575 128.449 25.575H127.149V31.5H128.449ZM134.124 34V16.5H136.874V34H134.124ZM141.627 23.875H145.402V26.375H141.627V31.5H146.377V34H138.877V16.5H146.377V19H141.627V23.875ZM156.013 16.5C157.396 16.5 158.421 16.8667 159.088 17.6C159.771 18.3333 160.113 19.4083 160.113 20.825V23.1C160.113 24.5167 159.771 25.5917 159.088 26.325C158.421 27.0583 157.396 27.425 156.013 27.425H154.713V34H151.963V16.5H156.013ZM154.713 19V24.925H156.013C156.446 24.925 156.78 24.8083 157.013 24.575C157.246 24.3417 157.363 23.9083 157.363 23.275V20.65C157.363 20.0167 157.246 19.5833 157.013 19.35C156.78 19.1167 156.446 19 156.013 19H154.713ZM164.137 23.875H167.912V26.375H164.137V31.5H168.887V34H161.387V16.5H168.887V19H164.137V23.875ZM170.591 34V16.5H173.341V31.5H175.716V16.5H178.466V31.5H180.841V16.5H183.591V34H170.591ZM188.331 23.875H192.106V26.375H188.331V31.5H193.081V34H185.581V16.5H193.081V19H188.331V23.875ZM197.535 34H194.785V16.5H197.535V24H200.66V16.5H203.46V34H200.66V26.5H197.535V34ZM208.279 34H205.454V16.5H207.904V27.575L208.904 23.725L211.154 16.5H214.179V34H211.704V21.675L210.579 25.975L208.279 34ZM215.623 34C215.756 33.6667 215.84 33.3417 215.873 33.025C215.906 32.6917 215.923 32.3083 215.923 31.875V29.175C215.923 28.2583 216.048 27.4833 216.298 26.85C216.565 26.2 217.048 25.7333 217.748 25.45C216.548 24.8833 215.948 23.7 215.948 21.9V20.525C215.948 19.175 216.265 18.1667 216.898 17.5C217.548 16.8333 218.59 16.5 220.023 16.5H224.173V34H221.423V26.875H220.473C219.84 26.875 219.381 27.0417 219.098 27.375C218.815 27.7083 218.673 28.2833 218.673 29.1V31.85C218.673 32.2 218.665 32.4917 218.648 32.725C218.648 32.9583 218.631 33.15 218.598 33.3C218.581 33.45 218.556 33.575 218.523 33.675C218.49 33.775 218.456 33.8833 218.423 34H215.623ZM220.098 19C219.615 19 219.256 19.1417 219.023 19.425C218.806 19.7083 218.698 20.1667 218.698 20.8V22.525C218.698 23.225 218.84 23.7083 219.123 23.975C219.423 24.2417 219.831 24.375 220.348 24.375H221.423V19H220.098ZM229.063 24.125H254.063V26.375H229.063V24.125Z" fill="#2196E9"/>
<path d="M270.05 16.5H267.175L265.925 22.5L265.275 26.575L264.425 22.475L262.925 16.5H260.2L264 30L263.975 30.15C263.75 31.425 262.95 31.675 261.55 31.575V34.025C265.375 34.275 266.45 32.7 267.1 29.55L270.05 16.5ZM275.005 16.5H271.18V34H273.58V21.625L275.63 34H278.23L280.13 21.45V34H282.73V16.5H278.905L277.03 28.925L275.005 16.5ZM287.48 26.5H290.605V34H293.405V16.5H290.605V24H287.48V16.5H284.73V34H287.48V26.5ZM301.499 16.5H297.474L294.674 34H297.199L297.674 30.825H301.049L301.524 34H304.299L301.499 16.5ZM299.349 19.6L300.674 28.45H298.024L299.349 19.6ZM307.88 34C308.03 33.55 308.13 33.275 308.13 31.85V29.1C308.13 27.475 308.68 26.875 309.93 26.875H310.88V34H313.63V16.5H309.48C306.63 16.5 305.405 17.825 305.405 20.525V21.9C305.405 23.7 305.98 24.875 307.205 25.45C305.83 26.025 305.38 27.35 305.38 29.175V31.875C305.38 32.725 305.355 33.35 305.08 34H307.88ZM310.88 19V24.375H309.805C308.78 24.375 308.155 23.925 308.155 22.525V20.8C308.155 19.55 308.58 19 309.555 19H310.88ZM324.896 27.475V29.975C324.896 31.225 324.346 31.675 323.471 31.675C322.596 31.675 322.046 31.225 322.046 29.975V20.525C322.046 19.275 322.596 18.8 323.471 18.8C324.346 18.8 324.896 19.275 324.896 20.525V22.4H327.496V20.7C327.496 17.9 326.096 16.3 323.396 16.3C320.696 16.3 319.296 17.9 319.296 20.7V29.8C319.296 32.6 320.696 34.2 323.396 34.2C326.096 34.2 327.496 32.6 327.496 29.8V27.475H324.896ZM328.364 19H331.239V34H333.989V19H336.864V16.5H328.364V19ZM342.125 16.5H338.075V34H340.825V27.425H342.125C344.875 27.425 346.225 25.9 346.225 23.1V20.825C346.225 18.025 344.875 16.5 342.125 16.5ZM342.125 19C343 19 343.475 19.4 343.475 20.65V23.275C343.475 24.525 343 24.925 342.125 24.925H340.825V19H342.125ZM353.599 16.5H349.574L346.774 34H349.299L349.774 30.825H353.149L353.624 34H356.399L353.599 16.5ZM351.449 19.6L352.774 28.45H350.124L351.449 19.6ZM360.43 26.5H363.555V34H366.355V16.5H363.555V24H360.43V16.5H357.68V34H360.43V26.5ZM374.449 16.5H370.424L367.624 34H370.149L370.624 30.825H373.999L374.474 34H377.249L374.449 16.5ZM372.299 19.6L373.624 28.45H370.974L372.299 19.6Z" fill="#2196E9"/>
<path d="M95.768 47.13C92.222 47.13 89.936 49.902 89.936 53.664C89.936 57.426 92.222 60.198 95.768 60.198C99.314 60.198 101.6 57.426 101.6 53.664C101.6 49.902 99.314 47.13 95.768 47.13ZM95.768 58.704C93.176 58.704 91.574 56.616 91.574 53.664C91.574 50.712 93.176 48.624 95.768 48.624C98.36 48.624 99.962 50.712 99.962 53.664C99.962 56.616 98.36 58.704 95.768 58.704ZM105.433 60V55.986H109.915V60H111.463V50.928H109.915V54.582H105.433V50.928H103.885V60H105.433ZM113.088 60.036H113.52C115.374 60.036 116.22 59.064 116.418 56.598L116.778 52.314H120.108V60H121.656V50.928H115.392L114.924 56.49C114.798 58.056 114.474 58.632 113.34 58.632H113.088V60.036ZM129.782 53.988V54.6H127.37C125.156 54.6 123.806 55.662 123.806 57.408C123.806 59.136 125.174 60.198 126.938 60.198C128.09 60.198 129.17 59.766 129.854 58.92V60H131.312V53.988C131.312 51.954 129.89 50.73 127.766 50.73C125.696 50.73 124.436 51.9 124.148 53.304H125.642C125.894 52.638 126.542 52.098 127.73 52.098C128.9 52.098 129.782 52.728 129.782 53.988ZM127.136 58.848C126.128 58.848 125.372 58.344 125.372 57.39C125.372 56.418 126.218 55.914 127.46 55.914H129.782V56.58C129.782 57.966 128.576 58.848 127.136 58.848ZM141.612 50.928H140.082L135.456 57.624V50.928H133.926V60H135.456L140.082 53.322V60H141.612V50.928ZM136.302 46.77H134.916C134.952 48.444 136.086 49.578 137.778 49.578C139.47 49.578 140.604 48.444 140.64 46.77H139.254C139.254 47.634 138.75 48.354 137.778 48.354C136.806 48.354 136.302 47.634 136.302 46.77ZM145.863 60V55.986H150.345V60H151.893V50.928H150.345V54.582H145.863V50.928H144.315V60H145.863ZM154.238 55.878H159.836V54.402H154.238V55.878ZM163.722 60V55.626L167.664 60H169.662L165.342 55.158L169.608 50.928H167.646L163.722 54.816V50.928H162.174V60H163.722ZM174.639 50.73C171.993 50.73 170.283 52.71 170.283 55.464C170.283 58.218 171.993 60.198 174.639 60.198C177.285 60.198 178.995 58.218 178.995 55.464C178.995 52.71 177.285 50.73 174.639 50.73ZM174.639 58.794C172.929 58.794 171.867 57.444 171.867 55.464C171.867 53.484 172.929 52.134 174.639 52.134C176.349 52.134 177.411 53.484 177.411 55.464C177.411 57.444 176.349 58.794 174.639 58.794ZM182.707 60V55.986H187.189V60H188.737V50.928H187.189V54.582H182.707V50.928H181.159V60H182.707ZM197.112 50.748V47.328H195.6V50.748C192.9 50.838 190.902 52.674 190.902 55.464C190.902 58.254 192.9 60.09 195.6 60.18V63.438H197.112V60.18C199.812 60.09 201.81 58.254 201.81 55.464C201.81 52.674 199.812 50.838 197.112 50.748ZM195.6 58.776C193.89 58.74 192.468 57.552 192.468 55.464C192.468 53.376 193.89 52.188 195.6 52.152V58.776ZM200.244 55.464C200.244 57.552 198.822 58.74 197.112 58.776V52.152C198.822 52.188 200.244 53.376 200.244 55.464ZM211.661 55.932V55.14C211.661 52.44 210.113 50.73 207.701 50.73C205.217 50.73 203.435 52.53 203.435 55.464C203.435 58.38 205.199 60.198 207.827 60.198C210.185 60.198 211.319 58.722 211.553 57.66H209.987C209.825 58.128 209.105 58.812 207.845 58.812C206.171 58.812 205.055 57.588 205.055 55.968V55.932H211.661ZM207.665 52.116C209.123 52.116 210.023 53.052 210.095 54.618H205.073C205.199 53.142 206.153 52.116 207.665 52.116ZM218.283 50.73C216.717 50.73 215.745 51.468 215.313 52.224V50.928H213.819V63.438H215.367V58.884C215.799 59.568 216.771 60.198 218.229 60.198C220.317 60.198 222.369 58.668 222.369 55.464C222.369 52.278 220.335 50.73 218.283 50.73ZM218.085 58.794C216.411 58.794 215.313 57.516 215.313 55.5V55.428C215.313 53.412 216.411 52.134 218.085 52.134C219.705 52.134 220.785 53.484 220.785 55.464C220.785 57.444 219.705 58.794 218.085 58.794ZM232.21 55.932V55.14C232.21 52.44 230.662 50.73 228.25 50.73C225.766 50.73 223.984 52.53 223.984 55.464C223.984 58.38 225.748 60.198 228.376 60.198C230.734 60.198 231.868 58.722 232.102 57.66H230.536C230.374 58.128 229.654 58.812 228.394 58.812C226.72 58.812 225.604 57.588 225.604 55.968V55.932H232.21ZM228.214 52.116C229.672 52.116 230.572 53.052 230.644 54.618H225.622C225.748 53.142 226.702 52.116 228.214 52.116ZM235.916 60V55.986H240.398V60H241.946V50.928H240.398V54.582H235.916V50.928H234.368V60H235.916ZM253.453 58.596H252.121V50.928H250.573V58.596H246.199V50.928H244.651V60H251.959V62.304H253.453V58.596ZM263.024 50.928H261.494L256.868 57.624V50.928H255.338V60H256.868L261.494 53.322V60H263.024V50.928ZM272.135 60V50.928H268.535C266.483 50.928 265.331 52.26 265.331 53.916C265.331 55.212 266.069 56.31 267.311 56.742L264.827 60H266.627L268.967 56.922H270.587V60H272.135ZM266.879 53.916C266.879 52.962 267.563 52.278 268.715 52.278H270.587V55.572H268.715C267.563 55.572 266.879 54.888 266.879 53.916Z" fill="black"/>
</svg>
