<svg width="379" height="69" viewBox="0 0 379 69" fill="none" xmlns="http://www.w3.org/2000/svg">
<path d="M69 34.5C69 20.2317 59.8842 7.08786 46.4885 2.13186C42.6588 0.715067 38.5823 0 34.5 0C20.1275 0 6.90027 9.25247 2.02809 22.7921C0.679488 26.5401 0 30.5178 0 34.5C0 48.7718 9.11406 61.9142 22.5157 66.8688C26.3432 68.2839 30.4204 69 34.5 69C48.9323 69 62.2069 59.6641 67.0296 46.0467C68.3402 42.3459 69 38.425 69 34.5ZM57.3341 56.6149L54.1832 52.7872C56.2079 50.6907 57.8667 48.2992 59.1236 45.6625C59.4438 44.9907 59.1587 44.1863 58.4868 43.8661C57.8151 43.5457 57.0107 43.8308 56.6904 44.5028C55.6039 46.7823 54.1833 48.8582 52.4578 50.6911L45.1934 41.8663V27.5853L58.3752 28.4455C58.7647 30.0781 58.9837 31.7598 59.0269 33.4575C59.0459 34.2015 59.6656 34.7892 60.4086 34.7703C61.1526 34.7512 61.7404 34.1328 61.7214 33.3887C61.6803 31.7818 61.4952 30.1878 61.1739 28.6281L65.816 28.9311C66.1368 30.7398 66.3047 32.6006 66.3047 34.5C66.3047 43.0861 62.8833 50.887 57.3341 56.6149ZM51.5527 61.3355L45.1934 55.6098V46.1072L45.3087 46.2474L51.3206 53.5506C51.3209 53.551 51.3213 53.5513 51.3216 53.5515L55.3748 58.4753C54.1761 59.5205 52.8987 60.4772 51.5527 61.3355ZM38.5392 66.0493L35.7199 44.502C35.6322 43.831 35.0604 43.3293 34.3837 43.3293C33.707 43.3293 33.1352 43.8312 33.0475 44.502L30.2324 66.0174C28.883 65.8356 27.5602 65.5686 26.2695 65.2225V26.1266C26.2695 25.3633 25.5974 24.7296 24.8341 24.7818L3.80861 26.1544C4.15806 24.8707 4.5858 23.6192 5.08686 22.4051L34.3644 16.9003C34.3709 16.9004 34.3772 16.9006 34.384 16.9007C34.3923 16.901 34.4007 16.9011 34.4094 16.9014L63.9146 22.4087C64.4197 23.6329 64.8502 24.8951 65.2011 26.1899L43.9335 24.8021C43.1673 24.7515 42.4981 25.3801 42.4981 26.147V65.2857C41.2081 65.621 39.8868 65.8779 38.5392 66.0493ZM12.9223 57.8425L17.2737 52.5555C17.2765 52.5521 17.2799 52.5492 17.2827 52.5457L23.5743 44.9007V54.7148L16.7379 60.8708C15.3886 59.959 14.114 58.9449 12.9223 57.8425ZM11.2532 28.3696L23.5741 27.5651V40.6591L22.786 41.6167L16.2008 49.6177C12.5623 45.2655 10.5748 39.8087 10.5748 34.0907C10.5748 32.154 10.8027 30.2339 11.2532 28.3696ZM23.5741 58.3419V64.3711C22.0353 63.8064 20.5528 63.1244 19.1354 62.3389L23.5741 58.3419ZM10.5583 13.5872L14.8213 17.8322L6.51794 19.3933C7.64903 17.3067 9.00733 15.3607 10.5583 13.5872ZM15.5921 8.94224L24.6428 15.9851L18.0345 17.228L12.4172 11.6346C13.4151 10.6705 14.4754 9.77051 15.5921 8.94224ZM62.4856 19.4002L53.7889 17.7769L58.2333 13.3526C59.8727 15.1904 61.3035 17.2182 62.4856 19.4002ZM56.3568 11.4172L50.5719 17.1763L43.9666 15.9434L53.1788 8.77499C54.2948 9.58763 55.3567 10.4698 56.3568 11.4172ZM40.4266 15.2827L39.2167 15.0568C40.5973 13.7834 41.4641 11.9607 41.4641 9.9387V7.51898C41.4641 5.87026 40.8871 4.35455 39.9259 3.16025C43.8434 3.83651 47.5176 5.2316 50.8077 7.2047L40.4266 15.2827ZM38.769 9.9387C38.769 12.2889 36.86 14.2013 34.5112 14.2074C34.4883 14.2071 34.4681 14.2067 34.4509 14.2063C34.445 14.2062 34.4381 14.206 34.4319 14.2059C32.1094 14.1693 30.231 12.2699 30.231 9.9387V7.51898C30.231 5.16503 32.146 3.25001 34.5 3.25001C36.854 3.25001 38.769 5.16503 38.769 7.51898V9.9387V9.9387ZM29.7502 15.0253L28.1779 15.321L17.9418 7.35551C21.2954 5.30222 25.057 3.85362 29.0739 3.16025C28.1128 4.35441 27.5357 5.87026 27.5357 7.51898V9.9387C27.5357 11.9443 28.3891 13.7534 29.7502 15.0253ZM45.1934 59.2366L49.097 62.7513C47.8421 63.4024 46.5385 63.9715 45.1934 64.4531V59.2366ZM3.1899 28.8959L8.4498 28.5525C8.07098 30.3663 7.87948 32.2219 7.87948 34.0907C7.87948 40.6153 10.2088 46.8329 14.4617 51.731L11.0124 55.9219C5.84883 50.2653 2.69531 42.7442 2.69531 34.5C2.69531 32.5883 2.86512 30.7155 3.1899 28.8959ZM32.9181 66.2652L34.3837 55.0646L35.8505 66.2741C35.4024 66.2928 34.9525 66.3047 34.5 66.3047C33.9696 66.3047 33.4422 66.2909 32.9181 66.2652Z" fill="white"/>
<path d="M61.0717 38.9054C60.7931 38.2263 59.9884 37.8945 59.3115 38.1763C58.6336 38.4585 58.302 39.2561 58.5826 39.9352C58.8632 40.6142 59.6638 40.9458 60.3426 40.6656C61.0201 40.3858 61.3535 39.5825 61.0717 38.9054Z" fill="white"/>
<path d="M98.05 13.5H95.175L93.925 19.5L93.275 23.575L92.425 19.475L90.925 13.5H88.2L92 27L91.975 27.15C91.75 28.425 90.95 28.675 89.55 28.575V31.025C93.375 31.275 94.45 29.7 95.1 26.55L98.05 13.5ZM103.005 13.5H99.1801V31H101.58V18.625L103.63 31H106.23L108.13 18.45V31H110.73V13.5H106.905L105.03 25.925L103.005 13.5ZM115.48 23.5H118.605V31H121.405V13.5H118.605V21H115.48V13.5H112.73V31H115.48V23.5ZM127.449 31C130.199 31 131.549 29.475 131.549 26.675V24.4C131.549 21.6 130.199 20.075 127.449 20.075H126.149V13.5H123.399V31H127.449ZM126.149 28.5V22.575H127.449C128.324 22.575 128.799 22.975 128.799 24.225V26.85C128.799 28.1 128.324 28.5 127.449 28.5H126.149ZM135.874 31V13.5H133.124V31H135.874ZM140.627 16H145.377V13.5H137.877V31H145.377V28.5H140.627V23.375H144.402V20.875H140.627V16ZM155.013 13.5H150.963V31H153.713V24.425H155.013C157.763 24.425 159.113 22.9 159.113 20.1V17.825C159.113 15.025 157.763 13.5 155.013 13.5ZM155.013 16C155.888 16 156.363 16.4 156.363 17.65V20.275C156.363 21.525 155.888 21.925 155.013 21.925H153.713V16H155.013ZM163.137 16H167.887V13.5H160.387V31H167.887V28.5H163.137V23.375H166.912V20.875H163.137V16ZM182.591 31V13.5H179.841V28.5H177.466V13.5H174.716V28.5H172.341V13.5H169.591V31H182.591ZM187.331 16H192.081V13.5H184.581V31H192.081V28.5H187.331V23.375H191.106V20.875H187.331V16ZM196.535 23.5H199.66V31H202.46V13.5H199.66V21H196.535V13.5H193.785V31H196.535V23.5ZM209.579 22.975L210.704 18.675V31H213.179V13.5H210.154L207.904 20.725L206.904 24.575V13.5H204.454V31H207.279L209.579 22.975ZM217.423 31C217.573 30.55 217.673 30.275 217.673 28.85V26.1C217.673 24.475 218.223 23.875 219.473 23.875H220.423V31H223.173V13.5H219.023C216.173 13.5 214.948 14.825 214.948 17.525V18.9C214.948 20.7 215.523 21.875 216.748 22.45C215.373 23.025 214.923 24.35 214.923 26.175V28.875C214.923 29.725 214.898 30.35 214.623 31H217.423ZM220.423 16V21.375H219.348C218.323 21.375 217.698 20.925 217.698 19.525V17.8C217.698 16.55 218.123 16 219.098 16H220.423ZM228.063 23.375H253.063V21.125H228.063V23.375Z" fill="white"/>
<path d="M269.05 13.5H266.175L264.925 19.5L264.275 23.575L263.425 19.475L261.925 13.5H259.2L263 27L262.975 27.15C262.75 28.425 261.95 28.675 260.55 28.575V31.025C264.375 31.275 265.45 29.7 266.1 26.55L269.05 13.5ZM274.005 13.5H270.18V31H272.58V18.625L274.63 31H277.23L279.13 18.45V31H281.73V13.5H277.905L276.03 25.925L274.005 13.5ZM286.48 23.5H289.605V31H292.405V13.5H289.605V21H286.48V13.5H283.73V31H286.48V23.5ZM300.499 13.5H296.474L293.674 31H296.199L296.674 27.825H300.049L300.524 31H303.299L300.499 13.5ZM298.349 16.6L299.674 25.45H297.024L298.349 16.6ZM306.88 31C307.03 30.55 307.13 30.275 307.13 28.85V26.1C307.13 24.475 307.68 23.875 308.93 23.875H309.88V31H312.63V13.5H308.48C305.63 13.5 304.405 14.825 304.405 17.525V18.9C304.405 20.7 304.98 21.875 306.205 22.45C304.83 23.025 304.38 24.35 304.38 26.175V28.875C304.38 29.725 304.355 30.35 304.08 31H306.88ZM309.88 16V21.375H308.805C307.78 21.375 307.155 20.925 307.155 19.525V17.8C307.155 16.55 307.58 16 308.555 16H309.88ZM323.896 24.475V26.975C323.896 28.225 323.346 28.675 322.471 28.675C321.596 28.675 321.046 28.225 321.046 26.975V17.525C321.046 16.275 321.596 15.8 322.471 15.8C323.346 15.8 323.896 16.275 323.896 17.525V19.4H326.496V17.7C326.496 14.9 325.096 13.3 322.396 13.3C319.696 13.3 318.296 14.9 318.296 17.7V26.8C318.296 29.6 319.696 31.2 322.396 31.2C325.096 31.2 326.496 29.6 326.496 26.8V24.475H323.896ZM327.364 16H330.239V31H332.989V16H335.864V13.5H327.364V16ZM341.125 13.5H337.075V31H339.825V24.425H341.125C343.875 24.425 345.225 22.9 345.225 20.1V17.825C345.225 15.025 343.875 13.5 341.125 13.5ZM341.125 16C342 16 342.475 16.4 342.475 17.65V20.275C342.475 21.525 342 21.925 341.125 21.925H339.825V16H341.125ZM352.599 13.5H348.574L345.774 31H348.299L348.774 27.825H352.149L352.624 31H355.399L352.599 13.5ZM350.449 16.6L351.774 25.45H349.124L350.449 16.6ZM359.43 23.5H362.555V31H365.355V13.5H362.555V21H359.43V13.5H356.68V31H359.43V23.5ZM373.449 13.5H369.424L366.624 31H369.149L369.624 27.825H372.999L373.474 31H376.249L373.449 13.5ZM371.299 16.6L372.624 25.45H369.974L371.299 16.6Z" fill="white"/>
<path d="M95.768 47.13C92.222 47.13 89.936 49.902 89.936 53.664C89.936 57.426 92.222 60.198 95.768 60.198C99.314 60.198 101.6 57.426 101.6 53.664C101.6 49.902 99.314 47.13 95.768 47.13ZM95.768 58.704C93.176 58.704 91.574 56.616 91.574 53.664C91.574 50.712 93.176 48.624 95.768 48.624C98.36 48.624 99.962 50.712 99.962 53.664C99.962 56.616 98.36 58.704 95.768 58.704ZM105.433 60V55.986H109.915V60H111.463V50.928H109.915V54.582H105.433V50.928H103.885V60H105.433ZM113.088 60.036H113.52C115.374 60.036 116.22 59.064 116.418 56.598L116.778 52.314H120.108V60H121.656V50.928H115.392L114.924 56.49C114.798 58.056 114.474 58.632 113.34 58.632H113.088V60.036ZM129.782 53.988V54.6H127.37C125.156 54.6 123.806 55.662 123.806 57.408C123.806 59.136 125.174 60.198 126.938 60.198C128.09 60.198 129.17 59.766 129.854 58.92V60H131.312V53.988C131.312 51.954 129.89 50.73 127.766 50.73C125.696 50.73 124.436 51.9 124.148 53.304H125.642C125.894 52.638 126.542 52.098 127.73 52.098C128.9 52.098 129.782 52.728 129.782 53.988ZM127.136 58.848C126.128 58.848 125.372 58.344 125.372 57.39C125.372 56.418 126.218 55.914 127.46 55.914H129.782V56.58C129.782 57.966 128.576 58.848 127.136 58.848ZM141.612 50.928H140.082L135.456 57.624V50.928H133.926V60H135.456L140.082 53.322V60H141.612V50.928ZM136.302 46.77H134.916C134.952 48.444 136.086 49.578 137.778 49.578C139.47 49.578 140.604 48.444 140.64 46.77H139.254C139.254 47.634 138.75 48.354 137.778 48.354C136.806 48.354 136.302 47.634 136.302 46.77ZM145.863 60V55.986H150.345V60H151.893V50.928H150.345V54.582H145.863V50.928H144.315V60H145.863ZM154.238 55.878H159.836V54.402H154.238V55.878ZM163.722 60V55.626L167.664 60H169.662L165.342 55.158L169.608 50.928H167.646L163.722 54.816V50.928H162.174V60H163.722ZM174.639 50.73C171.993 50.73 170.283 52.71 170.283 55.464C170.283 58.218 171.993 60.198 174.639 60.198C177.285 60.198 178.995 58.218 178.995 55.464C178.995 52.71 177.285 50.73 174.639 50.73ZM174.639 58.794C172.929 58.794 171.867 57.444 171.867 55.464C171.867 53.484 172.929 52.134 174.639 52.134C176.349 52.134 177.411 53.484 177.411 55.464C177.411 57.444 176.349 58.794 174.639 58.794ZM182.707 60V55.986H187.189V60H188.737V50.928H187.189V54.582H182.707V50.928H181.159V60H182.707ZM197.112 50.748V47.328H195.6V50.748C192.9 50.838 190.902 52.674 190.902 55.464C190.902 58.254 192.9 60.09 195.6 60.18V63.438H197.112V60.18C199.812 60.09 201.81 58.254 201.81 55.464C201.81 52.674 199.812 50.838 197.112 50.748ZM195.6 58.776C193.89 58.74 192.468 57.552 192.468 55.464C192.468 53.376 193.89 52.188 195.6 52.152V58.776ZM200.244 55.464C200.244 57.552 198.822 58.74 197.112 58.776V52.152C198.822 52.188 200.244 53.376 200.244 55.464ZM211.661 55.932V55.14C211.661 52.44 210.113 50.73 207.701 50.73C205.217 50.73 203.435 52.53 203.435 55.464C203.435 58.38 205.199 60.198 207.827 60.198C210.185 60.198 211.319 58.722 211.553 57.66H209.987C209.825 58.128 209.105 58.812 207.845 58.812C206.171 58.812 205.055 57.588 205.055 55.968V55.932H211.661ZM207.665 52.116C209.123 52.116 210.023 53.052 210.095 54.618H205.073C205.199 53.142 206.153 52.116 207.665 52.116ZM218.283 50.73C216.717 50.73 215.745 51.468 215.313 52.224V50.928H213.819V63.438H215.367V58.884C215.799 59.568 216.771 60.198 218.229 60.198C220.317 60.198 222.369 58.668 222.369 55.464C222.369 52.278 220.335 50.73 218.283 50.73ZM218.085 58.794C216.411 58.794 215.313 57.516 215.313 55.5V55.428C215.313 53.412 216.411 52.134 218.085 52.134C219.705 52.134 220.785 53.484 220.785 55.464C220.785 57.444 219.705 58.794 218.085 58.794ZM232.21 55.932V55.14C232.21 52.44 230.662 50.73 228.25 50.73C225.766 50.73 223.984 52.53 223.984 55.464C223.984 58.38 225.748 60.198 228.376 60.198C230.734 60.198 231.868 58.722 232.102 57.66H230.536C230.374 58.128 229.654 58.812 228.394 58.812C226.72 58.812 225.604 57.588 225.604 55.968V55.932H232.21ZM228.214 52.116C229.672 52.116 230.572 53.052 230.644 54.618H225.622C225.748 53.142 226.702 52.116 228.214 52.116ZM235.916 60V55.986H240.398V60H241.946V50.928H240.398V54.582H235.916V50.928H234.368V60H235.916ZM253.453 58.596H252.121V50.928H250.573V58.596H246.199V50.928H244.651V60H251.959V62.304H253.453V58.596ZM263.024 50.928H261.494L256.868 57.624V50.928H255.338V60H256.868L261.494 53.322V60H263.024V50.928ZM272.135 60V50.928H268.535C266.483 50.928 265.331 52.26 265.331 53.916C265.331 55.212 266.069 56.31 267.311 56.742L264.827 60H266.627L268.967 56.922H270.587V60H272.135ZM266.879 53.916C266.879 52.962 267.563 52.278 268.715 52.278H270.587V55.572H268.715C267.563 55.572 266.879 54.888 266.879 53.916Z" fill="white"/>
</svg>
