<svg width="33" height="37" viewBox="0 0 33 37" fill="none" xmlns="http://www.w3.org/2000/svg">
<g clip-path="url(#clip0)">
<path d="M30.5855 16.241H17.8755V1.84091C17.8755 0.847522 17.1637 0.0410156 16.2865 0.0410156C15.4097 0.0410156 14.6979 0.847522 14.6979 1.84091V16.241H1.9876C1.11079 16.241 0.398926 17.0475 0.398926 18.0409C0.398926 19.0346 1.11079 19.8411 1.9876 19.8411H14.6979V34.2409C14.6979 35.2346 15.4097 36.0411 16.2865 36.0411C17.1637 36.0411 17.8755 35.2346 17.8755 34.2409V19.8411H30.5855C31.4626 19.8411 32.1745 19.0346 32.1745 18.0409C32.1745 17.0475 31.4626 16.241 30.5855 16.241Z" fill="#0B8CEA"/>
</g>
<defs>
<clipPath id="clip0">
<rect width="31.7754" height="36" fill="white" transform="translate(0.398926 0.0410156)"/>
</clipPath>
</defs>
</svg>
